<svg xmlns="http://www.w3.org/2000/svg" width="368.59" height="45.78" viewBox="0 0 368.59 45.78"><title>ff-logo</title><path d="M78.15,154.36a22.79,22.79,0,0,1-35.76,4.5,19.63,19.63,0,0,0,0-32.19,22.8,22.8,0,0,1,35.14,3.51,12.59,12.59,0,0,0,.62,24.18Z" transform="translate(-11.35 -119.88)" fill="#f0eed5" stroke="#646868" stroke-miterlimit="10" stroke-width="0.2"/><path d="M50.78,142.77a19.57,19.57,0,0,1-8.39,16.09,22.8,22.8,0,0,1,0-32.19A19.57,19.57,0,0,1,50.78,142.77Z" transform="translate(-11.35 -119.88)" fill="#464646"/><path d="M35.74,142.77a22.77,22.77,0,0,0,6.65,16.09,19.42,19.42,0,0,1-11.27,3.57,19.67,19.67,0,1,1,11.27-35.76A22.78,22.78,0,0,0,35.74,142.77Z" transform="translate(-11.35 -119.88)" fill="#efaa84" stroke="#646868" stroke-miterlimit="10" stroke-width="0.2"/><path d="M81.31,142.77a22.69,22.69,0,0,1-3.16,11.59,12.59,12.59,0,0,1-.62-24.18A22.73,22.73,0,0,1,81.31,142.77Z" transform="translate(-11.35 -119.88)" fill="#464646"/><path d="M93.9,142.18a12.6,12.6,0,0,1-15.75,12.18,22.85,22.85,0,0,0-.62-24.18,12.72,12.72,0,0,1,3.78-.58A12.59,12.59,0,0,1,93.9,142.18Z" transform="translate(-11.35 -119.88)" fill="#efaa84" stroke="#646868" stroke-miterlimit="10" stroke-width="0.2"/><circle cx="87.26" cy="22.3" r="2.72" fill="#efaa84" stroke="#646868" stroke-miterlimit="10" stroke-width="0.2"/><path d="M46.59,130.63S58,150.86,73.23,132.55v19.26S60.4,138,47.69,153.35Z" transform="translate(-11.35 -119.88)" fill="#464646"/><path d="M120.38,155.72h-5V135.55h-7.57v-5h20.16v5h-7.56Z" transform="translate(-11.35 -119.88)" fill="#464646"/><path d="M134.9,155.72h-4.8V129.4h4.8v8.32a5.75,5.75,0,0,1,1.78-.93,6.54,6.54,0,0,1,1.86-.27,8.28,8.28,0,0,1,5.93,2.47,8.7,8.7,0,0,1,1.8,2.69,8.24,8.24,0,0,1,.65,3.28v10.76h-4.83V145h0a3.51,3.51,0,0,0-.29-1.4,3.47,3.47,0,0,0-.77-1.15,3.53,3.53,0,0,0-1.14-.77,3.42,3.42,0,0,0-1.39-.28,3.56,3.56,0,0,0-1.42.28,3.32,3.32,0,0,0-1.16.77A3.56,3.56,0,0,0,134.9,145Z" transform="translate(-11.35 -119.88)" fill="#464646"/><path d="M157.82,151.11a2.9,2.9,0,0,0,.57.12l.56,0a4.67,4.67,0,0,0,2.57-.75,4.7,4.7,0,0,0,1-.87,4.64,4.64,0,0,0,.73-1.16l3.52,3.54a9.59,9.59,0,0,1-1.54,1.7,10,10,0,0,1-1.88,1.29,9.49,9.49,0,0,1-4.42,1.07,9.47,9.47,0,0,1-8.86-5.93,10.25,10.25,0,0,1-.76-4,10.55,10.55,0,0,1,.76-4.08,9.17,9.17,0,0,1,5.12-5.17,9.73,9.73,0,0,1,3.74-.72,9.34,9.34,0,0,1,2.3.28,10,10,0,0,1,2.14.81,9.88,9.88,0,0,1,1.89,1.29,9.34,9.34,0,0,1,1.54,1.72Zm2.46-9.9a2.65,2.65,0,0,0-.65-.15,5.07,5.07,0,0,0-.68,0,4.82,4.82,0,0,0-1.86.36,4.36,4.36,0,0,0-1.51,1,4.9,4.9,0,0,0-1,1.61,5.89,5.89,0,0,0-.37,2.12c0,.17,0,.37,0,.59s.05.45.09.68a6.38,6.38,0,0,0,.15.66,2.18,2.18,0,0,0,.22.56Z" transform="translate(-11.35 -119.88)" fill="#464646"/><path d="M184.86,155.72h-5.05V130.51h17.65v5h-12.6v5h7.56v5h-7.56Z" transform="translate(-11.35 -119.88)" fill="#464646"/><path d="M205.2,131.78a3,3,0,0,1-.26,1.24,3.12,3.12,0,0,1-.69,1,3.45,3.45,0,0,1-1,.69A3.12,3.12,0,0,1,202,135a3.18,3.18,0,0,1-1.26-.25A3.31,3.31,0,0,1,199,133a3,3,0,0,1-.26-1.24,3.24,3.24,0,0,1,.95-2.26,3.12,3.12,0,0,1,1-.69,3.18,3.18,0,0,1,1.26-.25,3.12,3.12,0,0,1,1.26.25,3.45,3.45,0,0,1,1,.69,3.24,3.24,0,0,1,.95,2.26Zm-.83,23.94h-4.83V136.89h4.83Z" transform="translate(-11.35 -119.88)" fill="#464646"/><path d="M218.36,155.72h-11v-4.78h11a1.21,1.21,0,0,0,1.2-1.2.67.67,0,0,0-.35-.67,2.18,2.18,0,0,0-.85-.16h-5a5.76,5.76,0,0,1-2.34-.47,6.26,6.26,0,0,1-1.9-1.29,6.08,6.08,0,0,1-1.27-1.91,6.06,6.06,0,0,1,0-4.68,6,6,0,0,1,1.27-1.89,6.06,6.06,0,0,1,1.9-1.28,5.92,5.92,0,0,1,2.34-.46h9.72v4.78h-9.72a1.21,1.21,0,0,0-1.2,1.19,1.19,1.19,0,0,0,.36.87,1.12,1.12,0,0,0,.84.36h5a6.37,6.37,0,0,1,2.32.42,5.79,5.79,0,0,1,1.9,1.15,5.43,5.43,0,0,1,1.76,4,5.68,5.68,0,0,1-.48,2.33,6.18,6.18,0,0,1-1.28,1.9,6,6,0,0,1-1.9,1.28A5.83,5.83,0,0,1,218.36,155.72Z" transform="translate(-11.35 -119.88)" fill="#464646"/><path d="M231.69,155.72h-4.8V129.4h4.8v8.32a5.59,5.59,0,0,1,1.77-.93,6.56,6.56,0,0,1,1.87-.27,8.08,8.08,0,0,1,3.26.66,8.35,8.35,0,0,1,2.67,1.81,8.85,8.85,0,0,1,1.79,2.69,8.25,8.25,0,0,1,.66,3.28v10.76h-4.83V145h0a3.5,3.5,0,0,0-.28-1.4,3.8,3.8,0,0,0-.77-1.15,3.47,3.47,0,0,0-1.15-.77,3.37,3.37,0,0,0-1.38-.28,3.61,3.61,0,0,0-1.43.28,3.51,3.51,0,0,0-1.16.77,3.63,3.63,0,0,0-.77,1.15,3.5,3.5,0,0,0-.28,1.4Z" transform="translate(-11.35 -119.88)" fill="#464646"/><path d="M262.75,155.72H257.7V130.51h17.65v5h-12.6v5h7.56v5h-7.56Z" transform="translate(-11.35 -119.88)" fill="#464646"/><path d="M293.46,155.72H292.3l-1.87-2.59a13.56,13.56,0,0,1-1.45,1.15,10.75,10.75,0,0,1-1.61.94,9.92,9.92,0,0,1-1.73.62,7.28,7.28,0,0,1-1.8.23,10.25,10.25,0,0,1-3.73-.67,8.73,8.73,0,0,1-3.06-1.94,9.11,9.11,0,0,1-2.07-3.12,11.08,11.08,0,0,1-.75-4.2,10.6,10.6,0,0,1,.75-4,9.64,9.64,0,0,1,2.07-3.15,9.3,9.3,0,0,1,3.06-2,9.51,9.51,0,0,1,3.73-.73,7.42,7.42,0,0,1,1.81.23,9.05,9.05,0,0,1,1.74.63A11.34,11.34,0,0,1,289,138a12.63,12.63,0,0,1,1.43,1.18l1.87-2.23h1.16Zm-4.84-9.58a4.82,4.82,0,0,0-.38-1.91,5.52,5.52,0,0,0-1-1.64,5.32,5.32,0,0,0-1.52-1.14,4.23,4.23,0,0,0-1.86-.43,4.94,4.94,0,0,0-1.85.34,4.28,4.28,0,0,0-1.52,1,4.75,4.75,0,0,0-1,1.61,6.67,6.67,0,0,0,0,4.38,4.81,4.81,0,0,0,1,1.6,4.17,4.17,0,0,0,1.52,1,5.15,5.15,0,0,0,1.85.33,4.1,4.1,0,0,0,1.86-.43,5.32,5.32,0,0,0,1.52-1.14,5.52,5.52,0,0,0,1-1.64A4.81,4.81,0,0,0,288.62,146.14Z" transform="translate(-11.35 -119.88)" fill="#464646"/><path d="M301.91,155.72h-4.8V136.89h1.16l1.58,1.83a8.53,8.53,0,0,1,2.63-1.63,8.41,8.41,0,0,1,3.07-.57,8.11,8.11,0,0,1,3.25.66,8.35,8.35,0,0,1,2.67,1.81,8.55,8.55,0,0,1,1.81,2.69,8.42,8.42,0,0,1,.65,3.28v10.76h-4.79V145a3.51,3.51,0,0,0-.29-1.4,3.47,3.47,0,0,0-.77-1.15,3.53,3.53,0,0,0-1.14-.77,3.45,3.45,0,0,0-1.39-.28,3.56,3.56,0,0,0-1.42.28,3.32,3.32,0,0,0-1.16.77,3.66,3.66,0,0,0-.78,1.15,3.5,3.5,0,0,0-.28,1.4Z" transform="translate(-11.35 -119.88)" fill="#464646"/><path d="M335.57,155.72h-1.16l-1.86-2.59a14.64,14.64,0,0,1-1.45,1.15,11.27,11.27,0,0,1-1.61.94,9.92,9.92,0,0,1-1.73.62,7.28,7.28,0,0,1-1.8.23,10.3,10.3,0,0,1-3.74-.67,8.91,8.91,0,0,1-3.06-1.94,9.08,9.08,0,0,1-2.06-3.12,10.88,10.88,0,0,1-.76-4.2,10.42,10.42,0,0,1,.76-4,9.62,9.62,0,0,1,2.06-3.15,9.49,9.49,0,0,1,6.8-2.78,7.42,7.42,0,0,1,1.81.23,9.05,9.05,0,0,1,1.74.63,11.34,11.34,0,0,1,1.61.95,13.58,13.58,0,0,1,1.43,1.18l1.86-2.23h1.16Zm-4.83-9.58a5,5,0,0,0-.38-1.91,5.36,5.36,0,0,0-1-1.64,5.19,5.19,0,0,0-1.52-1.14A4.22,4.22,0,0,0,326,141a5,5,0,0,0-1.86.34,4.24,4.24,0,0,0-1.51,1,4.6,4.6,0,0,0-1,1.61,6.67,6.67,0,0,0,0,4.38,4.65,4.65,0,0,0,1,1.6,4.13,4.13,0,0,0,1.51,1,5.2,5.2,0,0,0,1.86.33,4.09,4.09,0,0,0,1.85-.43,5.19,5.19,0,0,0,1.52-1.14,5.36,5.36,0,0,0,1-1.64A5,5,0,0,0,330.74,146.14Z" transform="translate(-11.35 -119.88)" fill="#464646"/><path d="M348.67,155.72a8.17,8.17,0,0,1-3.27-.66,8.68,8.68,0,0,1-2.68-1.81,8.51,8.51,0,0,1-1.81-2.68,8.17,8.17,0,0,1-.66-3.27v-5.59h-2.34v-4.78h2.34V129.4H345v7.53h7.28v4.78H345v5.59a3.51,3.51,0,0,0,.28,1.41,3.68,3.68,0,0,0,.77,1.15,3.83,3.83,0,0,0,1.17.79,3.57,3.57,0,0,0,1.42.29h3.64v4.78Z" transform="translate(-11.35 -119.88)" fill="#464646"/><path d="M360.66,131.78a3,3,0,0,1-.26,1.24,3.12,3.12,0,0,1-.69,1,3.33,3.33,0,0,1-1,.69,3.28,3.28,0,0,1-2.51,0,3.06,3.06,0,0,1-1-.69,3.12,3.12,0,0,1-.69-1,3,3,0,0,1-.25-1.24,3.22,3.22,0,0,1,2-2.95,3.28,3.28,0,0,1,2.51,0,3.33,3.33,0,0,1,1,.69,3.24,3.24,0,0,1,1,2.26Zm-.83,23.94H355V136.89h4.83Z" transform="translate(-11.35 -119.88)" fill="#464646"/><path d="M379.94,140.63l-3.52,3.54a4.5,4.5,0,0,0-.72-1.33,4.77,4.77,0,0,0-1-1,4.47,4.47,0,0,0-2.61-.83,4.36,4.36,0,0,0-1.86.41,4.51,4.51,0,0,0-1.51,1.13,5.29,5.29,0,0,0-1,1.73,6.31,6.31,0,0,0-.37,2.22,4.55,4.55,0,0,0,.37,1.84,4.6,4.6,0,0,0,1,1.51,4.48,4.48,0,0,0,1.51,1,4.76,4.76,0,0,0,4.43-.38,4.7,4.7,0,0,0,1-.87,4.64,4.64,0,0,0,.73-1.16l3.52,3.54a9.59,9.59,0,0,1-1.54,1.7,10,10,0,0,1-1.88,1.29,10.13,10.13,0,0,1-2.13.8,9.7,9.7,0,0,1-2.29.27,9.39,9.39,0,0,1-3.74-.75,9.61,9.61,0,0,1-5.12-5.09,9.14,9.14,0,0,1-.76-3.72,10.65,10.65,0,0,1,.76-4,10.55,10.55,0,0,1,2.06-3.28,9.72,9.72,0,0,1,3.06-2.2,8.8,8.8,0,0,1,3.74-.81,9,9,0,0,1,2.31.3,9.32,9.32,0,0,1,4.06,2.27A8.67,8.67,0,0,1,379.94,140.63Z" transform="translate(-11.35 -119.88)" fill="#464646"/></svg>